<?xml version="1.0" encoding="utf-8"?>
<!-- Generator: Adobe Illustrator 15.0.0, SVG Export Plug-In . SVG Version: 6.00 Build 0)  -->
<!DOCTYPE svg PUBLIC "-//W3C//DTD SVG 1.1//EN" "http://www.w3.org/Graphics/SVG/1.1/DTD/svg11.dtd">
<svg version="1.1" id="Слой_1" xmlns="http://www.w3.org/2000/svg" xmlns:xlink="http://www.w3.org/1999/xlink" x="0px" y="0px"
	 width="234px" height="80px" viewBox="0 0 234 80" enable-background="new 0 0 234 80" xml:space="preserve">
<g>
	<linearGradient id="SVGID_1_" gradientUnits="userSpaceOnUse" x1="39.1904" y1="80" x2="39.1904" y2="4.882813e-004">
		<stop  offset="0" style="stop-color:#A35325"/>
		<stop  offset="1" style="stop-color:#DF9427"/>
	</linearGradient>
	<path fill-rule="evenodd" clip-rule="evenodd" fill="url(#SVGID_1_)" d="M47.168,48.955l-0.115-13.918l-6.801,6.047h-7.145
		l0.115-6.913l-7.492,6.913h-6.444l11.976-11.912h6.224v8.595l8.875-8.595h5.658l-0.225,14.394l12.389-11.459l5.186-0.027
		l-8.155,8.281l7.89,7.982l-5.565,0.143l-5.13-5.354l-5.895,5.822H47.168L47.168,48.955z M62.814,54.393h-2.206
		c-4.72,6.713-12.47,10.787-20.701,10.787c-11.516,0-21.644-7.977-24.521-19.029h12.145l1.285-1.592l0.094,1.578h12.803l0.59-0.818
		v8.398h12.559l3.8-4.307l1.925,1.576h17.795v-0.115h-0.055L67.813,39.818v-0.105l-0.387-0.385l10.665-9.877H59.313l-3.309,3.876
		v-8.983H44.91l-2.411,2.232v-2.232H29.158L14.574,38.83c0.436-13.584,11.684-24.669,25.333-24.669
		c8.8,0,17.008,4.656,21.595,12.149h15.596C71.439,10.683,56.419,0,39.746,0c-10.974,0-20.91,4.479-28.103,11.717
		C4.45,18.956,0,28.957,0,40.002c0,11.043,4.45,21.043,11.643,28.281C18.836,75.523,28.772,80,39.746,80
		c16.434,0,31.217-10.336,37.059-25.607H62.814L62.814,54.393z M74.182,55.963h-4.826c-5.744,10.715-14.033,17.994-29.852,17.994
		S5.562,58.58,5.562,39.622c0-18.959,17.835-34.334,33.942-34.334c16.107,0,25.107,7.944,30.59,19.451h4.402
		C68.523,10.988,54.805,1.85,39.746,1.85c-10.466,0-19.943,4.271-26.804,11.175C6.083,19.93,1.839,29.468,1.839,40.002
		c0,10.531,4.244,20.07,11.103,26.973c6.86,6.906,16.337,11.176,26.804,11.176C54.537,78.15,68.053,69.338,74.182,55.963
		L74.182,55.963z M64.555,55.963h-2.817c-5.09,6.898-13.228,11.066-21.83,11.066c-13.226,0-24.604-9.779-26.797-22.73h1.867h0.001
		h11.686l3.703-4.586l0.272,4.574h10.141l3.363-4.662v12.24h9.896l4.366-4.977l3.168,2.527h13.102l-10.02-10.078l9.314-8.316H60.387
		c-2.029,2.402-4.119,4.745-6.214,7.091V26.195h-8.551l-4.962,4.592v-4.592H29.905L14.993,41.008h-2.24
		c-0.366-7.678,2.506-15.222,7.931-20.683c8.688-8.744,22.368-10.503,32.931-4.28c3.653,2.152,6.763,5.137,9.07,8.694h2.748
		c-5.128-9.121-12.143-15.275-25.93-15.275C25.716,9.464,9.69,22.97,9.69,39.622c0,16.653,16.328,30.157,29.813,30.157
		C52.989,69.779,59.247,64.275,64.555,55.963z"/>
	<g id="Слуцкий_мясокомбинат">
		<g>
			<path fill-rule="evenodd" clip-rule="evenodd" fill="#E7C088" d="M99.198,34.317c0.573,0.615,1.263,1.082,2.064,1.403
				c0.802,0.321,1.69,0.481,2.667,0.481c0.561,0,1.082-0.034,1.563-0.101c0.481-0.066,0.902-0.147,1.264-0.24
				c0.36-0.094,0.661-0.191,0.902-0.29c0.24-0.102,0.406-0.185,0.5-0.251l-0.5-1.604c-0.295,0.148-0.735,0.314-1.324,0.5
				c-0.588,0.188-1.329,0.282-2.225,0.282c-0.775,0-1.454-0.133-2.035-0.4c-0.581-0.268-1.066-0.646-1.453-1.134
				c-0.388-0.488-0.678-1.072-0.873-1.754c-0.193-0.681-0.289-1.437-0.289-2.265c0-0.854,0.109-1.628,0.33-2.315
				c0.221-0.688,0.537-1.273,0.953-1.754c0.414-0.481,0.914-0.849,1.503-1.103c0.588-0.254,1.249-0.38,1.985-0.38
				c0.346,0,0.691,0.03,1.031,0.089c0.342,0.062,0.654,0.138,0.943,0.231c0.286,0.093,0.543,0.187,0.771,0.281
				c0.228,0.092,0.401,0.18,0.522,0.26l0.561-1.604c-0.08-0.053-0.229-0.133-0.441-0.239c-0.214-0.107-0.491-0.215-0.832-0.322
				c-0.34-0.106-0.742-0.2-1.203-0.281c-0.461-0.08-0.979-0.12-1.553-0.12c-0.909,0-1.765,0.16-2.566,0.482
				c-0.802,0.32-1.504,0.788-2.105,1.402c-0.6,0.616-1.078,1.374-1.433,2.276c-0.354,0.902-0.531,1.934-0.531,3.097
				c0,1.163,0.157,2.195,0.472,3.097C98.178,32.943,98.623,33.702,99.198,34.317z M113,34.016c0.221-0.374,0.404-0.776,0.551-1.204
				c0.146-0.426,0.268-0.885,0.36-1.373c0.095-0.486,0.168-0.982,0.222-1.483c0.053-0.501,0.09-1.002,0.109-1.503
				c0.021-0.502,0.03-0.973,0.03-1.413h3.288v8.861h1.863V25.476h-6.936c0,0.561-0.003,1.156-0.01,1.783
				c-0.008,0.629-0.031,1.253-0.07,1.875c-0.039,0.622-0.107,1.22-0.2,1.794c-0.095,0.575-0.241,1.089-0.44,1.543
				c-0.229,0.521-0.531,0.963-0.912,1.323c-0.383,0.362-0.899,0.608-1.555,0.743l0.262,1.563c0.573-0.054,1.074-0.178,1.502-0.37
				c0.429-0.195,0.803-0.436,1.123-0.723C112.509,34.721,112.779,34.39,113,34.016z M125.339,38.847
				c0.348-0.28,0.664-0.639,0.952-1.071c0.286-0.435,0.563-0.954,0.832-1.555c0.682-1.576,1.315-3.271,1.904-5.082
				c0.587-1.811,1.122-3.699,1.604-5.663h-1.924c-0.335,1.456-0.689,2.873-1.063,4.249c-0.373,1.376-0.815,2.767-1.323,4.17
				c-0.32-0.682-0.628-1.389-0.923-2.125c-0.292-0.735-0.567-1.47-0.82-2.206c-0.254-0.734-0.484-1.45-0.692-2.145
				c-0.207-0.694-0.385-1.342-0.531-1.944h-2.005c0.482,1.843,1.087,3.666,1.815,5.462c0.728,1.798,1.513,3.499,2.354,5.103
				c-0.334,0.734-0.709,1.266-1.123,1.594c-0.413,0.327-0.988,0.49-1.724,0.49c-0.228,0-0.458-0.03-0.691-0.09
				c-0.233-0.061-0.425-0.123-0.571-0.189l-0.34,1.502c0.053,0.026,0.143,0.061,0.27,0.101s0.268,0.076,0.422,0.11
				c0.153,0.033,0.311,0.061,0.47,0.08c0.16,0.021,0.313,0.03,0.462,0.03c0.548,0,1.039-0.068,1.474-0.201
				C124.6,39.335,124.991,39.127,125.339,38.847z M140.915,25.476h-1.865v8.88h-4.591v-8.88h-1.863v10.425h7.958v2.906h1.764v-4.451
				h-1.402V25.476z M146.206,30.969c0.388,0.253,0.803,0.567,1.244,0.942c0.44,0.375,0.874,0.782,1.302,1.223s0.839,0.9,1.233,1.374
				c0.395,0.475,0.739,0.94,1.033,1.394h2.204c-0.28-0.468-0.62-0.973-1.021-1.516c-0.401-0.54-0.832-1.071-1.293-1.592
				c-0.461-0.521-0.933-1.005-1.414-1.453c-0.48-0.449-0.929-0.82-1.342-1.114c0.333-0.333,0.707-0.711,1.121-1.131
				c0.415-0.421,0.833-0.846,1.254-1.274c0.421-0.427,0.828-0.845,1.223-1.252s0.737-0.771,1.032-1.092h-2.165
				c-0.227,0.254-0.521,0.571-0.882,0.952s-0.752,0.782-1.173,1.203c-0.421,0.421-0.839,0.835-1.253,1.242
				c-0.415,0.409-0.782,0.766-1.104,1.073v-4.47h-1.863v10.425h1.863V30.969z M160.891,27.089c-0.475,0.622-0.949,1.269-1.423,1.944
				c-0.475,0.676-0.933,1.357-1.373,2.046c-0.441,0.689-0.836,1.32-1.184,1.895v-7.498h-1.804v10.425h1.664
				c0.321-0.549,0.701-1.177,1.143-1.885c0.441-0.709,0.901-1.428,1.383-2.156c0.481-0.728,0.963-1.433,1.443-2.116
				c0.481-0.681,0.922-1.275,1.324-1.783v7.939h1.803V25.476h-1.643C161.81,25.93,161.365,26.468,160.891,27.089z M169.882,34.016
				c0.44-0.709,0.901-1.428,1.383-2.156c0.48-0.728,0.962-1.433,1.443-2.116c0.481-0.681,0.922-1.275,1.323-1.783v7.939h1.804
				V25.476h-1.644c-0.414,0.454-0.858,0.992-1.333,1.613c-0.475,0.622-0.949,1.269-1.423,1.944
				c-0.475,0.676-0.932,1.357-1.374,2.046c-0.441,0.689-0.835,1.32-1.182,1.895v-7.498h-1.806v10.425h1.664
				C169.059,35.352,169.44,34.724,169.882,34.016z M169.41,23.149c0.528,0.429,1.213,0.642,2.056,0.642
				c0.841,0,1.523-0.213,2.044-0.642c0.521-0.427,0.835-1.021,0.942-1.783l-1.403-0.381c-0.107,0.428-0.287,0.775-0.541,1.042
				c-0.254,0.268-0.602,0.4-1.042,0.4c-0.442,0-0.789-0.133-1.043-0.4c-0.254-0.267-0.435-0.615-0.541-1.042l-1.424,0.381
				C168.565,22.128,168.882,22.723,169.41,23.149z M109.242,54.713c-0.067-0.9-0.142-1.789-0.222-2.666
				c-0.08-0.875-0.167-1.713-0.261-2.516h-1.724c-0.429,0.695-0.929,1.648-1.504,2.857s-1.235,2.602-1.984,4.18
				c-0.749-1.578-1.41-2.971-1.984-4.18c-0.575-1.209-1.075-2.162-1.503-2.857h-1.705c-0.094,0.803-0.18,1.641-0.261,2.516
				c-0.079,0.877-0.153,1.766-0.22,2.666c-0.068,0.904-0.128,1.799-0.181,2.688c-0.054,0.889-0.094,1.74-0.12,2.557h1.783
				c0.041-1.164,0.094-2.402,0.161-3.719c0.066-1.316,0.167-2.637,0.301-3.959c0.214,0.387,0.461,0.871,0.741,1.451
				c0.281,0.582,0.559,1.176,0.833,1.783c0.272,0.611,0.534,1.188,0.781,1.736c0.247,0.547,0.444,0.988,0.592,1.324h1.563
				c0.133-0.322,0.32-0.756,0.561-1.305c0.241-0.547,0.498-1.123,0.772-1.725s0.552-1.191,0.831-1.773
				c0.281-0.582,0.528-1.08,0.742-1.492c0.133,1.322,0.234,2.643,0.301,3.959s0.121,2.555,0.16,3.719h1.845
				c-0.026-0.816-0.067-1.668-0.121-2.557C109.368,56.512,109.308,55.617,109.242,54.713z M116.479,49.271
				c-0.629,0-1.207,0.072-1.734,0.221c-0.528,0.146-0.986,0.363-1.375,0.65c-0.387,0.287-0.69,0.65-0.91,1.094
				c-0.221,0.439-0.331,0.955-0.331,1.543c0,0.281,0.03,0.559,0.09,0.832c0.061,0.273,0.163,0.531,0.311,0.771
				c0.146,0.24,0.341,0.457,0.582,0.652c0.239,0.193,0.548,0.355,0.921,0.49c-0.2,0.281-0.414,0.596-0.641,0.943
				c-0.227,0.346-0.451,0.715-0.672,1.102c-0.22,0.387-0.438,0.785-0.65,1.193c-0.215,0.406-0.402,0.805-0.562,1.193h1.884
				c0.307-0.629,0.658-1.307,1.053-2.037c0.395-0.727,0.805-1.412,1.233-2.053c0.173,0.014,0.354,0.023,0.54,0.029
				c0.188,0.008,0.381,0.01,0.582,0.01h1.623v4.051h1.846V49.672c-0.415-0.107-0.93-0.199-1.545-0.281
				C118.107,49.313,117.359,49.271,116.479,49.271z M118.422,54.523h-1.864c-0.761,0-1.383-0.127-1.864-0.381
				c-0.48-0.254-0.722-0.717-0.722-1.385c0-0.68,0.234-1.178,0.702-1.492c0.467-0.313,1.082-0.473,1.844-0.473
				c0.441,0,0.833,0.016,1.174,0.041c0.34,0.027,0.584,0.053,0.73,0.082V54.523z M129.589,58.412
				c-0.401,0.094-0.85,0.141-1.345,0.141c-0.614,0-1.135-0.09-1.563-0.271c-0.428-0.18-0.779-0.438-1.052-0.771
				c-0.275-0.334-0.476-0.736-0.603-1.203s-0.189-0.982-0.189-1.543c0-1.256,0.276-2.211,0.831-2.865
				c0.554-0.656,1.354-0.982,2.396-0.982c0.414,0,0.805,0.037,1.173,0.119c0.367,0.08,0.691,0.186,0.973,0.32l0.42-1.584
				c-0.428-0.174-0.875-0.299-1.343-0.381c-0.468-0.078-0.936-0.119-1.402-0.119c-0.763,0-1.453,0.137-2.075,0.412
				c-0.622,0.273-1.146,0.652-1.574,1.141c-0.428,0.49-0.759,1.066-0.991,1.734c-0.234,0.668-0.353,1.402-0.353,2.205
				s0.107,1.533,0.322,2.195c0.213,0.662,0.536,1.232,0.971,1.713c0.436,0.482,0.97,0.857,1.604,1.125
				c0.635,0.266,1.373,0.4,2.216,0.4c0.268,0,0.545-0.018,0.831-0.051c0.288-0.033,0.559-0.074,0.813-0.119
				c0.253-0.047,0.48-0.102,0.681-0.162c0.201-0.059,0.354-0.125,0.462-0.191l-0.261-1.563
				C130.303,58.219,129.989,58.318,129.589,58.412z M140.363,50.773c-0.435-0.48-0.951-0.85-1.553-1.111
				c-0.603-0.262-1.258-0.391-1.965-0.391c-0.709,0-1.364,0.129-1.965,0.391c-0.602,0.262-1.119,0.631-1.554,1.111
				c-0.435,0.482-0.771,1.061-1.013,1.734c-0.24,0.676-0.361,1.422-0.361,2.236c0,0.828,0.121,1.576,0.361,2.246
				c0.241,0.668,0.578,1.242,1.013,1.723s0.952,0.852,1.554,1.113c0.601,0.26,1.256,0.391,1.965,0.391
				c0.707,0,1.362-0.131,1.965-0.391c0.602-0.262,1.118-0.633,1.553-1.113c0.434-0.48,0.771-1.055,1.013-1.723
				c0.241-0.67,0.36-1.418,0.36-2.246c0-0.814-0.119-1.561-0.36-2.236C141.135,51.834,140.797,51.256,140.363,50.773z M139,57.541
				c-0.527,0.688-1.246,1.033-2.154,1.033c-0.91,0-1.628-0.346-2.155-1.033c-0.529-0.689-0.793-1.621-0.793-2.797
				s0.264-2.109,0.793-2.797c0.527-0.689,1.245-1.031,2.155-1.031c0.908,0,1.627,0.342,2.154,1.031
				c0.527,0.688,0.792,1.621,0.792,2.797S139.527,56.852,139,57.541z M150.929,56.85c-0.462-0.523-0.934-1.006-1.413-1.453
				c-0.482-0.449-0.929-0.82-1.344-1.113c0.334-0.334,0.707-0.713,1.123-1.133c0.413-0.422,0.831-0.846,1.252-1.273
				s0.829-0.846,1.223-1.254c0.395-0.406,0.739-0.77,1.034-1.092h-2.165c-0.229,0.256-0.523,0.572-0.883,0.953
				c-0.361,0.381-0.752,0.781-1.174,1.203c-0.421,0.42-0.838,0.834-1.253,1.24c-0.414,0.41-0.781,0.766-1.102,1.074v-4.471h-1.865
				v10.426h1.865v-4.932c0.387,0.252,0.801,0.566,1.243,0.941c0.439,0.375,0.874,0.781,1.303,1.223
				c0.428,0.441,0.839,0.9,1.233,1.373c0.393,0.475,0.737,0.939,1.031,1.395h2.205c-0.281-0.469-0.621-0.975-1.021-1.514
				C151.82,57.9,151.39,57.371,150.929,56.85z M162.375,50.773c-0.435-0.48-0.952-0.85-1.555-1.111
				c-0.602-0.262-1.256-0.391-1.965-0.391c-0.707,0-1.361,0.129-1.964,0.391c-0.601,0.262-1.119,0.631-1.554,1.111
				c-0.435,0.482-0.771,1.061-1.012,1.734c-0.241,0.676-0.362,1.422-0.362,2.236c0,0.828,0.121,1.576,0.362,2.246
				c0.24,0.668,0.577,1.242,1.012,1.723s0.953,0.852,1.554,1.113c0.603,0.26,1.257,0.391,1.964,0.391
				c0.709,0,1.363-0.131,1.965-0.391c0.603-0.262,1.12-0.633,1.555-1.113c0.434-0.48,0.771-1.055,1.012-1.723
				c0.241-0.67,0.36-1.418,0.36-2.246c0-0.814-0.119-1.561-0.36-2.236C163.146,51.834,162.809,51.256,162.375,50.773z
				 M161.012,57.541c-0.529,0.688-1.247,1.033-2.156,1.033c-0.908,0-1.626-0.346-2.153-1.033c-0.529-0.689-0.792-1.621-0.792-2.797
				s0.263-2.109,0.792-2.797c0.527-0.689,1.245-1.031,2.153-1.031c0.909,0,1.627,0.342,2.156,1.031
				c0.527,0.688,0.791,1.621,0.791,2.797S161.539,56.852,161.012,57.541z M177.779,54.713c-0.066-0.9-0.139-1.789-0.22-2.666
				c-0.08-0.875-0.167-1.713-0.26-2.516h-1.725c-0.429,0.695-0.93,1.648-1.503,2.857c-0.576,1.209-1.236,2.602-1.984,4.18
				c-0.749-1.578-1.411-2.971-1.985-4.18c-0.575-1.209-1.076-2.162-1.503-2.857h-1.704c-0.094,0.803-0.181,1.641-0.261,2.516
				c-0.08,0.877-0.154,1.766-0.221,2.666c-0.067,0.904-0.128,1.799-0.181,2.688s-0.094,1.74-0.12,2.557h1.785
				c0.039-1.164,0.092-2.402,0.159-3.719s0.167-2.637,0.301-3.959c0.213,0.387,0.461,0.871,0.742,1.451
				c0.28,0.582,0.558,1.176,0.831,1.783c0.274,0.611,0.534,1.188,0.782,1.736c0.248,0.547,0.444,0.988,0.591,1.324h1.565
				c0.133-0.322,0.319-0.756,0.56-1.305c0.242-0.547,0.499-1.123,0.772-1.725s0.552-1.191,0.833-1.773
				c0.279-0.582,0.526-1.08,0.74-1.492c0.134,1.322,0.233,2.643,0.301,3.959s0.12,2.555,0.16,3.719h1.845
				c-0.026-0.816-0.067-1.668-0.12-2.557C177.907,56.512,177.848,55.617,177.779,54.713z M185.759,49.693
				c-0.509,0-1.039,0.088-1.594,0.268c-0.556,0.182-1.04,0.439-1.453,0.773c0.16-1.402,0.595-2.434,1.303-3.088
				s1.725-1.055,3.047-1.203c0.481-0.051,0.872-0.098,1.173-0.139s0.541-0.074,0.723-0.102c0.18-0.027,0.319-0.047,0.42-0.059
				c0.1-0.014,0.197-0.035,0.291-0.061l-0.2-1.686c-0.188,0.041-0.368,0.078-0.542,0.111s-0.364,0.063-0.571,0.09
				c-0.208,0.027-0.447,0.057-0.722,0.09s-0.591,0.078-0.952,0.131c-1.229,0.174-2.235,0.512-3.017,1.014
				c-0.782,0.502-1.393,1.131-1.835,1.895c-0.439,0.762-0.744,1.643-0.912,2.645c-0.167,1.002-0.251,2.086-0.251,3.248
				c0,0.896,0.074,1.744,0.222,2.545c0.147,0.803,0.403,1.504,0.771,2.105c0.367,0.602,0.865,1.078,1.493,1.422
				c0.628,0.35,1.417,0.523,2.365,0.523c0.83,0,1.544-0.146,2.146-0.441c0.601-0.293,1.099-0.689,1.493-1.182
				c0.394-0.494,0.684-1.064,0.871-1.705s0.281-1.309,0.281-2.004c0-1.631-0.385-2.904-1.152-3.818
				C188.388,50.15,187.255,49.693,185.759,49.693z M188.205,56.316c-0.108,0.447-0.274,0.84-0.502,1.174s-0.521,0.6-0.882,0.791
				c-0.36,0.195-0.795,0.293-1.304,0.293c-0.588,0-1.069-0.123-1.442-0.371c-0.376-0.248-0.672-0.586-0.894-1.014
				c-0.22-0.426-0.373-0.922-0.46-1.484c-0.086-0.561-0.131-1.154-0.131-1.785v-0.74c0-0.266,0.007-0.473,0.021-0.621
				c0.281-0.346,0.678-0.641,1.193-0.883c0.514-0.24,1.053-0.359,1.613-0.359c0.574,0,1.053,0.1,1.434,0.301
				c0.38,0.199,0.685,0.467,0.912,0.801c0.227,0.334,0.383,0.715,0.471,1.143c0.087,0.428,0.131,0.869,0.131,1.324
				C188.365,55.391,188.312,55.869,188.205,56.316z M198.739,51.145c-0.475,0.623-0.95,1.27-1.424,1.945
				c-0.475,0.676-0.933,1.355-1.373,2.045c-0.441,0.689-0.836,1.32-1.184,1.895v-7.498h-1.804v10.426h1.664
				c0.32-0.549,0.702-1.178,1.143-1.885c0.441-0.709,0.902-1.428,1.384-2.156c0.48-0.727,0.962-1.432,1.443-2.115
				c0.481-0.682,0.921-1.275,1.322-1.783v7.939h1.805V49.531h-1.644C199.657,49.986,199.213,50.523,198.739,51.145z M211.599,53.781
				h-4.812v-4.25h-1.864v10.426h1.864v-4.613h4.812v4.613h1.864V49.531h-1.864V53.781z M223.175,50.385
				c-0.314-0.355-0.728-0.629-1.242-0.824c-0.516-0.191-1.146-0.289-1.895-0.289c-0.655,0-1.264,0.051-1.824,0.148
				c-0.562,0.102-0.962,0.207-1.202,0.313l0.22,1.543c0.227-0.094,0.571-0.184,1.032-0.271c0.462-0.086,0.999-0.129,1.613-0.129
				c0.481,0,0.872,0.068,1.174,0.211c0.301,0.141,0.538,0.326,0.712,0.561c0.173,0.234,0.294,0.5,0.36,0.803
				c0.066,0.299,0.101,0.604,0.101,0.91v0.523c-0.054-0.014-0.148-0.035-0.281-0.061c-0.134-0.025-0.291-0.057-0.471-0.092
				c-0.182-0.031-0.371-0.059-0.571-0.078c-0.201-0.021-0.395-0.031-0.582-0.031c-0.588,0-1.148,0.061-1.684,0.18
				s-1.002,0.309-1.403,0.563c-0.4,0.254-0.719,0.588-0.952,1.002c-0.234,0.414-0.351,0.908-0.351,1.484
				c0,0.602,0.1,1.115,0.3,1.543c0.201,0.428,0.481,0.771,0.842,1.033c0.362,0.258,0.789,0.449,1.284,0.57
				c0.494,0.121,1.035,0.18,1.623,0.18c0.414,0,0.833-0.016,1.253-0.049c0.421-0.033,0.812-0.07,1.174-0.111
				c0.36-0.039,0.683-0.084,0.972-0.131c0.288-0.047,0.511-0.082,0.671-0.109V53.26c0-0.588-0.066-1.125-0.2-1.613
				C223.713,51.16,223.489,50.736,223.175,50.385z M222.224,58.473c-0.229,0.053-0.512,0.09-0.853,0.111
				c-0.341,0.02-0.731,0.029-1.173,0.029c-0.735,0-1.316-0.131-1.744-0.391c-0.428-0.262-0.642-0.725-0.642-1.393
				c0-0.361,0.088-0.652,0.26-0.873c0.176-0.221,0.392-0.395,0.653-0.521c0.26-0.127,0.548-0.211,0.861-0.252
				c0.313-0.039,0.611-0.061,0.893-0.061c0.427,0,0.791,0.025,1.092,0.072s0.519,0.104,0.652,0.17V58.473z M225.851,49.531v1.564
				h3.389v8.861h1.864v-8.861h3.388v-1.564H225.851z"/>
		</g>
	</g>
</g>
</svg>
